<?xml version="1.0" encoding="UTF-8"?>
<!DOCTYPE svg PUBLIC "-//W3C//DTD SVG 1.1//EN" "http://www.w3.org/Graphics/SVG/1.1/DTD/svg11.dtd">
<svg
   width="200px"
   height="200px"
   viewBox="0 0 200 200"
   version="1.1"
   id="svg1"
   inkscape:version="1.3 (0e150ed6c4, 2023-07-21)"
   sodipodi:docname="dibujo.svg"
   xmlns:inkscape="http://www.inkscape.org/namespaces/inkscape"
   xmlns:sodipodi="http://sodipodi.sourceforge.net/DTD/sodipodi-0.dtd"
   xmlns="http://www.w3.org/2000/svg"
   xmlns:svg="http://www.w3.org/2000/svg">
  <sodipodi:namedview
     id="namedview1"
     pagecolor="#ffffff"
     bordercolor="#000000"
     borderopacity="0.25"
     inkscape:showpageshadow="2"
     inkscape:pageopacity="0.0"
     inkscape:pagecheckerboard="0"
     inkscape:deskcolor="#d1d1d1"
     inkscape:document-units="mm"
     inkscape:zoom="0.72426347" 
     
     inkscape:cx="396.26464"
     inkscape:cy="561.25984"
     inkscape:window-width="2560"
     inkscape:window-height="1009"
     inkscape:window-x="1912"
     inkscape:window-y="-8"
     inkscape:window-maximized="1"
     inkscape:current-layer="layer1" />
  <defs
     id="defs1" />
  <g
     inkscape:label="Capa 1"
     inkscape:groupmode="layer"
     id="layer1">
    <g
       id="g1"
       style="stroke-width:4.9;stroke-dasharray:none"
       transform="matrix(1.1119841,0,0,1.2633938,-9.3392404,-24.764103)">
      <g
         id="g2"
         transform="matrix(0.13358694,0,0,0.11664657,-2.5412135,27.188187)"
         style="clip-rule:evenodd;fill-rule:evenodd;stroke-width:39.2535;stroke-dasharray:none;image-rendering:optimizeQuality;shape-rendering:geometricPrecision;text-rendering:geometricPrecision">
        <path
           style="opacity:0.738;stroke-width:39.2535;stroke-dasharray:none"
           fill="#fe007e"
           d="m 1112.5,192.5 c 42.02,-1.065 76.86,15.269 104.5,49 14.73,22.145 22.9,46.312 24.5,72.5 -0.46,7.248 -0.46,14.248 0,21 -3.39,27.749 -11.06,53.083 -23,76 21.55,4.059 40.89,12.725 58,26 25.6,22.035 34.93,49.035 28,81 -1.97,11.567 -5.8,22.733 -11.5,33.5 -31.58,48.2 -75.75,76.866 -132.5,86 -4.36,0.893 -8.69,1.893 -13,3 -1.84,-0.692 -3.67,-0.358 -5.5,1 -1.67,-0.333 -3.33,-0.667 -5,-1 -5,1 -10,2 -15,3 -1.3,-1.284 -2.46,-1.117 -3.5,0.5 80.87,72.202 158.54,147.869 233,227 -0.79,1.085 -1.46,2.252 -2,3.5 -144.94,42.089 -292.27,73.256 -442,93.5 -61.767,8.353 -123.767,11.02 -186,8 C 632.016,968.832 556.183,933.332 494,869.5 443.55,815.867 417.05,752.033 414.5,678 c 1.951,-73.552 30.284,-134.552 85,-183 -23.487,-14.599 -47.987,-27.099 -73.5,-37.5 -0.333,0.333 -0.667,0.667 -1,1 -16.927,-6.991 -32.594,-4.991 -47,6 1.011,12.992 -4.823,18.159 -17.5,15.5 -6.03,-7.425 -5.03,-13.759 3,-19 2,-0.5 4,-1 6,-1.5 2.301,0.896 4.634,1.062 7,0.5 10.557,-9.255 22.89,-12.589 37,-10 9.976,2.163 19.643,5.163 29,9 18.781,9.391 37.448,18.724 56,28 -11.915,-23.997 -25.748,-46.83 -41.5,-68.5 -13.703,-16.299 -30.203,-21.632 -49.5,-16 -2.473,8.573 -8.139,12.073 -17,10.5 -7.382,-3.455 -8.882,-8.621 -4.5,-15.5 6.856,-5.932 13.523,-5.932 20,0 20.671,-5.898 38.338,-0.564 53,16 4.692,5.859 9.192,11.859 13.5,18 11.743,18.876 22.743,38.209 33,58 54.049,-42.636 115.716,-65.47 185,-68.5 73.468,-3.176 141.302,14.657 203.5,53.5 2.18,-8.945 4.68,-17.445 7.5,-25.5 12.302,-53.898 30.802,-105.731 55.5,-155.5 23.169,-39.44 55.67,-68.606 97.5,-87.5 19,-7.424 38.34,-11.924 58,-13.5 z m -6,6 c 7.67,0.279 15.17,0.279 22.5,0 52.71,7.417 86.88,36.25 102.5,86.5 -0.33,0.333 -0.67,0.667 -1,1 6.25,21.263 7.25,42.263 3,63 -0.69,8.439 -2.69,16.772 -6,25 0.33,0.333 0.67,0.667 1,1 -3.3,8.101 -6.63,15.768 -10,23 0.33,0.333 0.67,0.667 1,1 -2.01,3.454 -4.35,7.121 -7,11 -48.07,-4.93 -93.74,6.404 -137,34 -36.53,24.364 -70.87,51.531 -103,81.5 -24.258,-17.088 -48.925,-33.588 -74,-49.5 11.409,-43.897 24.742,-87.564 40,-131 8.983,-21.133 19.15,-41.633 30.5,-61.5 34.19,-49.246 80.02,-77.579 137.5,-85 z m 66,215 c 12.11,0.016 24.44,0.349 37,1 0.01,1.808 -0.49,3.475 -1.5,5 -5.69,7.37 -11.03,15.036 -16,23 -20.97,22.905 -44.64,41.905 -71,57 -2.85,2.85 -6.02,5.35 -9.5,7.5 -30.49,18.308 -62.15,35.475 -95,51.5 -13.54,-9.933 -26.878,-20.1 -40,-30.5 37.2,-34.875 77.53,-65.542 121,-92 23.8,-11.571 48.8,-19.071 75,-22.5 z m 44,2 c 24.56,4.197 45.73,14.864 63.5,32 11.39,12.259 18.56,26.426 21.5,42.5 1.34,29.327 -7.5,55.827 -26.5,79.5 -33.73,37.896 -75.06,59.562 -124,65 -2.46,0.718 -4.96,1.385 -7.5,2 -0.59,-0.209 -1.09,-0.543 -1.5,-1 -2.12,0.727 -4.29,1.394 -6.5,2 -0.59,-0.209 -1.09,-0.543 -1.5,-1 -6.76,1.111 -13.76,2.111 -21,3 -29.62,-26.629 -60.12,-52.129 -91.5,-76.5 36.03,-18.872 71.69,-39.205 107,-61 9.83,-7.598 19.67,-14.431 29.5,-20.5 11.63,-9.964 22.97,-20.298 34,-31 8.73,-11.788 16.89,-23.455 24.5,-35 z m -534,11 c 12.333,0 24.667,0 37,0 -46.394,167.181 -93.394,334.181 -141,501 C 512.198,890.703 464.864,837.203 436.5,767 406.695,682.012 418.529,603.512 472,531.5 c 43.88,-51.879 99.38,-84.713 166.5,-98.5 14.732,-2.736 29.398,-4.902 44,-6.5 z m 41,0 c 51.965,2.156 100.632,15.823 146,41 0.333,0.833 0.667,1.667 1,2.5 -45.774,167.154 -91.441,334.321 -137,501.5 -53.77,-1.815 -104.104,-15.815 -151,-42 47.616,-167.512 94.616,-335.178 141,-503 z m 151,44 c 5.771,2.72 11.438,5.72 17,9 0.572,1.578 0.906,3.078 1,4.5 -2.022,5.178 -3.689,10.178 -5,15 0.333,0.333 0.667,0.667 1,1 -10.51,43.988 -19.51,87.988 -27,132 12.724,2.301 25.224,4.134 37.5,5.5 1.398,-0.551 2.732,-0.884 4,-1 2.667,0.667 5.333,1.333 8,2 0.333,-0.333 0.667,-0.667 1,-1 8.333,1 16.667,2 25,3 0.333,-0.333 0.667,-0.667 1,-1 3.667,0.667 7.333,1.333 11,2 1.398,-0.551 2.732,-0.884 4,-1 3.667,0.667 7.333,1.333 11,2 1.398,-0.551 2.732,-0.884 4,-1 3.667,0.667 7.333,1.333 11,2 11.214,0.162 22.21,0.162 33,0 5.67,0.667 11.33,1.333 17,2 15.33,0 30.67,0 46,0 11.21,-0.883 22.04,-1.55 32.5,-2 2.06,0.548 3.72,1.714 5,3.5 -25.73,98.074 -51.23,196.241 -76.5,294.5 -54.985,11.427 -110.485,19.593 -166.5,24.5 31.333,-107.333 62.667,-214.667 94,-322 -1.365,-1.682 -2.865,-1.849 -4.5,-0.5 -30.87,107.814 -62.203,215.48 -94,323 -42.336,4.683 -84.836,6.35 -127.5,5 45.822,-166.956 91.489,-333.956 137,-501 z m 23,13 c 24.266,14.1 47.6,29.6 70,46.5 -11.307,10.305 -22.641,20.638 -34,31 -21.459,20.959 -42.793,42.126 -64,63.5 -0.572,-1.578 -0.906,-3.078 -1,-4.5 2,-8.667 4,-17.333 6,-26 -0.333,-0.333 -0.667,-0.667 -1,-1 1.952,-8.381 3.952,-17.047 6,-26 -0.333,-0.333 -0.667,-0.667 -1,-1 6.253,-27.511 12.586,-55.011 19,-82.5 z m 73,49 c 13.808,9.083 27.141,18.916 40,29.5 -43.007,21.389 -86.007,40.389 -129,57 29.311,-29.482 58.978,-58.315 89,-86.5 z m 43,33 c 1.42,0.209 2.76,0.709 4,1.5 29.25,23.247 57.92,47.247 86,72 -2.93,0.218 -5.76,0.718 -8.5,1.5 -26.83,-0.076 -53.16,-0.076 -79,0 -7.33,-0.667 -14.67,-1.333 -22,-2 -1.398,0.551 -2.732,0.884 -4,1 -14.684,-1.135 -29.351,-2.468 -44,-4 -1.268,0.116 -2.602,0.449 -4,1 -7.26,-0.769 -14.593,-1.769 -22,-3 -1.268,0.116 -2.602,0.449 -4,1 -2.667,-0.667 -5.333,-1.333 -8,-2 -4.538,-0.344 -8.872,-0.344 -13,0 -1.667,-0.667 -3.333,-1.333 -5,-2 -1.398,0.551 -2.732,0.884 -4,1 -5.007,-1.198 -9.841,-2.031 -14.5,-2.5 48.825,-18.934 96.158,-40.101 142,-63.5 z m 102,84 c 36.05,31.215 71.05,63.715 105,97.5 -15.92,55.528 -31.92,111.028 -48,166.5 -43.63,10.907 -87.63,20.24 -132,28 25,-97.333 50,-194.667 75,-292 z m 108,100 c 40.86,39.689 80.86,80.189 120,121.5 -54.89,15.347 -110.06,29.514 -165.5,42.5 14.84,-54.683 30.01,-109.35 45.5,-164 z"
           id="path1" />
      </g>
      <g
         id="g3"
         transform="matrix(0.13358694,0,0,0.11664657,-2.5412135,27.188187)"
         style="clip-rule:evenodd;fill-rule:evenodd;stroke-width:39.2535;stroke-dasharray:none;image-rendering:optimizeQuality;shape-rendering:geometricPrecision;text-rendering:geometricPrecision">
        <path
           style="opacity:0.639;stroke-width:39.2535;stroke-dasharray:none"
           fill="#fe007e"
           d="m 311.5,407.5 c 22.251,0.127 37.251,10.627 45,31.5 -0.333,0.333 -0.667,0.667 -1,1 3.563,13.541 1.23,26.041 -7,37.5 -3.807,5.64 -7.807,11.14 -12,16.5 11.969,-1.691 23.469,-3.191 34.5,-4.5 23.274,4.262 36.774,17.762 40.5,40.5 -1.468,23.103 -13.302,37.937 -35.5,44.5 -5.41,-0.068 -10.91,-0.068 -16.5,0 -7.145,-1.153 -14.812,-2.32 -23,-3.5 10.622,9.208 19.622,19.875 27,32 -0.333,0.333 -0.667,0.667 -1,1 6.172,20.482 0.505,37.149 -17,50 -21.82,11.002 -40.987,6.836 -57.5,-12.5 -5.082,-9.883 -9.415,-20.217 -13,-31 -2.572,9.722 -5.572,19.388 -9,29 -11.872,22.21 -29.372,30.376 -52.5,24.5 -6.965,-2.649 -13.132,-6.482 -18.5,-11.5 -2.127,-4.089 -4.627,-7.923 -7.5,-11.5 0.589,-1.873 -0.078,-3.54 -2,-5 0.597,-1.628 0.263,-3.295 -1,-5 0,-5 0,-10 0,-15 4.767,-13.87 12.101,-26.203 22,-37 -12.133,2.388 -23.966,4.221 -35.5,5.5 -25.969,-5.266 -39.469,-20.766 -40.5,-46.5 5.906,-26.518 22.739,-39.351 50.5,-38.5 8.468,1.503 16.634,2.67 24.5,3.5 -8.265,-7.593 -15.765,-15.759 -22.5,-24.5 -11.931,-24.583 -6.431,-44.75 16.5,-60.5 18.202,-7.899 35.369,-4.399 51.5,10.5 5.057,8.954 9.557,17.787 13.5,26.5 -0.333,0.333 -0.667,0.667 -1,1 1.553,2.655 2.72,5.488 3.5,8.5 2.729,-11.186 6.062,-22.186 10,-33 7.481,-13.82 18.981,-21.82 34.5,-24 z m 1,5 c 20.71,0.582 34.043,11.082 40,31.5 0.017,3.633 -0.15,7.467 -0.5,11.5 -0.996,7.327 -3.663,13.994 -8,20 -6.542,9.112 -13.542,17.778 -21,26 -0.563,1.225 -0.23,2.225 1,3 3.96,-2.228 8.293,-3.895 13,-5 1.628,0.597 3.295,0.263 5,-1 0.333,0.333 0.667,0.667 1,1 7.49,-1.192 14.823,-2.859 22,-5 25.46,1.122 39.294,14.622 41.5,40.5 -3.022,15.931 -11.856,27.097 -26.5,33.5 -9.979,0.041 -20.313,0.041 -31,0 -5.667,-1.667 -11.333,-3.333 -17,-5 -2.234,-0.126 -4.568,0.207 -7,1 -0.667,1 -0.667,2 0,3 11.583,8.793 21.583,19.127 30,31 9.226,17.922 6.726,33.922 -7.5,48 -11.536,8.469 -23.369,10.469 -35.5,6 -8.274,-1.848 -14.941,-6.515 -20,-14 -6.595,-12.628 -11.762,-26.295 -15.5,-41 -1.43,-0.079 -2.764,0.254 -4,1 -2.881,16.875 -8.214,32.875 -16,48 -2.377,2.508 -4.711,5.008 -7,7.5 -12.844,7.911 -26.511,8.911 -41,3 -19.504,-14.16 -24.004,-31.994 -13.5,-53.5 6.701,-11.108 14.868,-21.608 24.5,-31.5 -0.626,-0.75 -1.126,-1.584 -1.5,-2.5 -2.269,1.769 -4.602,2.435 -7,2 -6.918,2.215 -13.585,4.215 -20,6 -1,-0.333 -2,-0.667 -3,-1 -7.393,3.41 -15.059,3.743 -23,1 -13.844,-3.341 -23.177,-12.008 -28,-26 -3.409,-16.084 1.425,-29.584 14.5,-40.5 4.794,-2.446 9.794,-4.446 15,-6 15.825,-0.731 31.491,1.102 47,5.5 1.607,-0.137 2.941,-0.804 4,-2 -10.298,-9.8 -20.131,-20.133 -29.5,-31 -10.176,-17.097 -8.343,-33.597 5.5,-49.5 13.627,-10.709 28.294,-12.042 44,-4 6.555,3.555 11.388,8.721 14.5,15.5 5.573,11.443 9.907,23.11 13,35 2.477,2.625 4.31,2.125 5.5,-1.5 2.31,-16.096 7.31,-31.262 15,-45.5 4.819,-6.264 10.652,-10.598 17.5,-13 0.333,0.333 0.667,0.667 1,1 2.87,-1.193 5.704,-2.193 8.5,-3 z m -46,87 c 19.476,-1.112 32.976,7.888 40.5,27 3.171,16.9 -1.662,30.733 -14.5,41.5 -14.734,8.346 -29.4,8.012 -44,-1 -16.071,-14.245 -19.071,-31.078 -9,-50.5 6.747,-9.525 15.747,-15.192 27,-17 z"
           id="path2" />
      </g>
      <g
         id="g4"
         transform="matrix(0.13358694,0,0,0.11664657,-2.5412135,27.188187)"
         style="clip-rule:evenodd;fill-rule:evenodd;stroke-width:39.2535;stroke-dasharray:none;image-rendering:optimizeQuality;shape-rendering:geometricPrecision;text-rendering:geometricPrecision">
        <path
           style="opacity:0.635;stroke-width:39.2535;stroke-dasharray:none"
           fill="#fe007e"
           d="m 265.5,494.5 c 26.405,-0.452 42.405,12.382 48,38.5 -0.388,2.86 -0.388,5.86 0,9 -6.34,25.463 -21.84,37.963 -46.5,37.5 -20.807,-3.825 -33.64,-15.659 -38.5,-35.5 0.435,-4.905 0.935,-10.738 1.5,-17.5 5.857,-18.408 17.69,-29.075 35.5,-32 z m 1,5 c -11.253,1.808 -20.253,7.475 -27,17 -10.071,19.422 -7.071,36.255 9,50.5 14.6,9.012 29.266,9.346 44,1 12.838,-10.767 17.671,-24.6 14.5,-41.5 -7.524,-19.112 -21.024,-28.112 -40.5,-27 z"
           id="path3" />
      </g>
      <g
         id="g5"
         transform="matrix(0.13358694,0,0,0.11664657,-2.5412135,27.188187)"
         style="clip-rule:evenodd;fill-rule:evenodd;stroke-width:39.2535;stroke-dasharray:none;image-rendering:optimizeQuality;shape-rendering:geometricPrecision;text-rendering:geometricPrecision">
        <path
           style="opacity:0.971;stroke-width:39.2535;stroke-dasharray:none"
           fill="#fe007e"
           d="m 552.5,544.5 c 12.372,-0.477 19.538,5.523 21.5,18 4.131,31.144 -2.869,59.477 -21,85 -3.251,3.922 -7.084,7.088 -11.5,9.5 -9.137,3.742 -16.303,1.575 -21.5,-6.5 -6.022,-15.647 -7.022,-31.647 -3,-48 3.509,-20.853 12.675,-38.687 27.5,-53.5 2.599,-1.795 5.266,-3.295 8,-4.5 z"
           id="path4" />
      </g>
      <g
         id="g6"
         transform="matrix(0.13358694,0,0,0.11664657,-2.5412135,27.188187)"
         style="clip-rule:evenodd;fill-rule:evenodd;stroke-width:39.2535;stroke-dasharray:none;image-rendering:optimizeQuality;shape-rendering:geometricPrecision;text-rendering:geometricPrecision">
        <path
           style="opacity:0.64;stroke-width:39.2535;stroke-dasharray:none"
           fill="#fe007e"
           d="m 360.5,651.5 c 1,0 2,0 3,0 11.389,37.553 21.222,75.553 29.5,114 2.825,15.447 5.325,30.613 7.5,45.5 0.207,12.15 0.207,24.317 0,36.5 -5.068,31.78 -21.068,56.946 -48,75.5 -39.793,17.478 -70.293,6.978 -91.5,-31.5 -13.929,-32.869 -12.929,-65.536 3,-98 16.233,-31.069 34.733,-60.736 55.5,-89 13.838,-17.8 27.505,-35.467 41,-53 z m -1,9 c 0.617,0.111 1.117,0.444 1.5,1 14.752,45.502 25.919,91.669 33.5,138.5 -0.457,0.414 -0.791,0.914 -1,1.5 0.884,6.73 1.884,13.397 3,20 1.607,30.021 -7.227,57.021 -26.5,81 -14.923,16.075 -32.756,24.075 -53.5,24 -14.898,-1.616 -27.565,-7.616 -38,-18 -13.932,-16.474 -21.598,-35.141 -23,-56 -0.405,-7.147 0.095,-14.48 1.5,-22 0.78,-6.902 2.446,-13.569 5,-20"
           id="path5" />
      </g>
    </g>
  </g>
</svg>